<svg width="30" height="30" viewBox="0 0 30 30" fill="none" xmlns="http://www.w3.org/2000/svg">

    <g id="in">
        <path d="M27.2863 0H2.71374C1.215 0 0 1.215 0 2.71374V27.2862C0 28.785 1.215 30 2.71374 30H27.2862C28.785 30 30 28.785 30 27.2862V2.71374C30 1.215 28.785 0 27.2863 0ZM9.28327 25.904C9.28327 26.3402 8.92971 26.6937 8.49353 26.6937H5.13181C4.69563 26.6937 4.34207 26.3402 4.34207 25.904V11.8118C4.34207 11.3756 4.69563 11.022 5.13181 11.022H8.49353C8.92971 11.022 9.28327 11.3756 9.28327 11.8118V25.904ZM6.81267 9.69361C5.04887 9.69361 3.61901 8.26374 3.61901 6.49995C3.61901 4.73615 5.04887 3.30628 6.81267 3.30628C8.57647 3.30628 10.0063 4.73615 10.0063 6.49995C10.0063 8.26374 8.57654 9.69361 6.81267 9.69361ZM26.8516 25.9676C26.8516 26.3686 26.5264 26.6937 26.1254 26.6937H22.5181C22.1171 26.6937 21.7919 26.3686 21.7919 25.9676V19.3575C21.7919 18.3715 22.0812 15.0365 19.215 15.0365C16.9918 15.0365 16.5408 17.3192 16.4503 18.3436V25.9676C16.4503 26.3686 16.1252 26.6937 15.7242 26.6937H12.2352C11.8342 26.6937 11.5091 26.3686 11.5091 25.9676V11.7481C11.5091 11.3471 11.8342 11.022 12.2352 11.022H15.7242C16.1252 11.022 16.4503 11.3471 16.4503 11.7481V12.9776C17.2747 11.7404 18.4998 10.7855 21.1083 10.7855C26.8846 10.7855 26.8516 16.1821 26.8516 19.1472V25.9676Z" fill="white"/>
    </g>

    <g id="whatsapp">

        <g clip-path="url(#clip0_1_4778)">
            <path d="M4.40904 24.1866L4.83954 23.1821L4.22665 22.2772C2.76895 20.1251 2 17.6184 2 15C2 11.5238 3.34949 8.26561 5.80756 5.80759C8.26567 3.34953 11.5238 2 15 2C18.4762 2 21.7344 3.34954 24.1924 5.80756C26.6504 8.26569 28 11.5238 28 15C28 18.4762 26.6504 21.7343 24.1924 24.1924C21.7344 26.6505 18.4762 28 15 28C12.2899 28 9.71296 27.1818 7.51472 25.6292L6.55827 24.9537L5.50107 25.4571L3.44496 26.4362L4.40904 24.1866ZM0.500026 29.5001L0.500008 29.5L0.499976 29.5L0.500026 29.5001Z" stroke="white" stroke-width="4"/>
            <path d="M22.9917 20.0766L22.5421 17.6414C22.5049 17.4403 22.349 17.282 22.1485 17.2419L18.613 16.5348C18.4488 16.5021 18.2795 16.5534 18.1613 16.6716L16.7249 18.108C14.3049 17.0236 12.9617 15.6776 11.7798 13.1536L13.2116 11.7218C13.3298 11.6036 13.3811 11.4341 13.3483 11.2701L12.6412 7.73459C12.6011 7.53403 12.4428 7.37811 12.2417 7.34096L9.80646 6.89137C9.73978 6.87906 9.6711 6.88041 9.60489 6.89547C8.96189 7.0416 8.37519 7.36557 7.90825 7.83262C7.0996 8.64127 6.79058 9.82117 7.01458 11.2449C7.39064 13.6356 8.56198 16.9627 10.7229 19.1322L10.7523 19.1615C12.9204 21.321 16.2474 22.4924 18.6381 22.8685C18.9392 22.9159 19.2294 22.9394 19.5075 22.9394C20.5442 22.9394 21.4128 22.6124 22.0504 21.9748C22.5174 21.5078 22.8415 20.9211 22.9875 20.2781C23.0026 20.212 23.0041 20.1433 22.9917 20.0766Z" fill="white"/>
        </g>
        <defs>
            <clipPath id="clip0_1_4778">
                <rect width="30" height="30" fill="white"/>
            </clipPath>
        </defs>

    </g>


    <g id="twitter">
        <path d="M0.57803 20.5003C1.84538 20.3455 3.13052 20.5122 4.39787 20.304C5.03446 20.2029 5.61758 19.9887 6.19472 19.7625C4.76679 18.8463 3.48153 17.7991 2.2857 16.5437C1.85732 16.0974 2.16666 15.3478 2.79145 15.33C3.30317 15.3537 3.80294 15.3122 4.29077 15.211C3.04718 13.6343 2.08333 11.9385 1.33366 10.0346C1.13142 9.52287 1.72634 9.00531 2.20833 9.15991C2.48795 9.27298 2.77353 9.35035 3.06509 9.4098C2.17861 7.27972 1.99415 5.13186 2.48795 2.77565C2.60101 2.2342 3.31498 2.10335 3.67793 2.46033C6.52198 5.25661 10.1157 6.60133 13.9593 7.24389C13.6201 4.61404 15.4885 1.81763 17.9397 0.901294C19.9746 0.14566 22.7056 0.663349 24.0741 2.37686C24.9904 1.79972 26.2576 1.60929 27.2751 1.4308C27.8106 1.34149 28.3283 1.86515 28.0129 2.39465C27.644 3.01346 27.293 3.67381 26.9063 4.30457C27.6917 4.07246 28.5009 3.92967 29.31 3.82855C29.8931 3.75118 30.2441 4.64961 29.798 5.00659C28.8519 5.76222 27.9118 6.62495 26.9063 7.31516C26.8766 13.9968 24.925 19.6017 18.9573 23.4036C13.983 26.581 4.73694 26.0456 0.411481 21.72H0.40551C0.215076 21.6723 0.113953 21.5295 0.0782549 21.3749C-0.0882935 21.125 0.030614 20.8157 0.250775 20.6967C0.334114 20.5954 0.441208 20.518 0.57803 20.5003Z" fill="white"/>
    </g>


    <g id="gmail">
        <path d="M30 6.19559V23.8043C30 25.4282 28.6891 26.7391 27.0652 26.7391H2.93479C1.31086 26.7391 0 25.4282 0 23.8043V6.19559C0 6.14344 0 6.09124 0.00650391 6.03909C0.0847852 4.53909 1.27822 3.34559 2.77822 3.26737C2.83037 3.26086 2.88258 3.26086 2.93473 3.26086H27.0652C27.1173 3.26086 27.176 3.26086 27.2282 3.26737C28.7217 3.34565 29.9152 4.53909 29.9934 6.03258C30 6.08473 30 6.14344 30 6.19559Z" fill="white"/>
        <path d="M27.2283 3.26731C27.176 3.2608 27.1175 3.2608 27.0652 3.2608H15V26.7391H27.0652C28.6891 26.7391 30 25.4282 30 23.8043V6.19559C30 6.14344 30 6.08473 29.9935 6.03252C29.9152 4.53908 28.7217 3.34559 27.2283 3.26731Z" fill="white"/>
        <path d="M29.9935 6.03267C29.9152 4.53917 28.7218 3.34573 27.2283 3.26745C22.435 8.06072 19.7432 10.7525 15 15.4957C13.2006 13.6953 4.54746 5.03663 2.77828 3.2674C1.27828 3.34568 0.0847852 4.53911 0.0065625 6.03911C0 6.09132 0 6.14353 0 6.19568V23.8044C0 25.4283 1.31086 26.7392 2.93479 26.7392H3.91307V9.94568L13.6174 19.6435C13.9957 20.0283 14.4979 20.2175 15.0001 20.2175C15.5022 20.2175 16.0044 20.0283 16.3827 19.6435L26.0871 9.93917V26.7392H27.0653C28.6893 26.7392 30.0001 25.4283 30.0001 23.8044V6.19568C30 6.14353 30 6.08482 29.9935 6.03267Z" fill="#303030" fill-opacity="0.57"/>
        <path d="M16.3826 19.6435L26.0869 9.93917V26.7392H27.0652C28.6891 26.7392 30 25.4283 30 23.8044V6.19568C30 6.14353 30 6.08482 29.9935 6.03261C29.9152 4.53911 28.7218 3.34568 27.2283 3.2674C22.435 8.06072 19.7432 10.7525 15 15.4957V20.2174C15.5021 20.2174 16.0044 20.0283 16.3826 19.6435Z" fill="#303030" fill-opacity="0.57"/>
    </g>


    <g id="gears">
        <path d="M16.2726 11.3301L15.2371 10.3888C15.3501 10.1775 15.4491 9.96045 15.5336 9.73831H16.9979C17.479 9.73831 17.8692 9.38364 17.8692 8.94615V6.62396C17.8692 6.18655 17.4791 5.8318 16.9979 5.8318H15.5335C15.449 5.60974 15.35 5.39269 15.2371 5.18138L16.2726 4.24004C16.6129 3.93071 16.6129 3.42913 16.2726 3.1198L14.4664 1.47778C14.126 1.16853 13.5745 1.16853 13.2341 1.47778L12.1987 2.41911C11.9662 2.31649 11.7275 2.22647 11.4832 2.1497V0.818468C11.4832 0.381054 11.0931 0.0263062 10.6118 0.0263062H8.05741C7.57626 0.0263062 7.18603 0.380973 7.18603 0.818468V2.1497C6.94177 2.22655 6.70301 2.31641 6.47057 2.41911L5.43519 1.47778C5.27181 1.32926 5.05012 1.24578 4.81901 1.24578C4.5879 1.24578 4.3663 1.32926 4.20283 1.47778L2.39652 3.1198C2.23314 3.26833 2.14132 3.46986 2.14132 3.67996C2.14132 3.89006 2.23314 4.09152 2.39652 4.24012L3.43199 5.18146C3.3191 5.39269 3.22008 5.60974 3.13563 5.83188H1.67137C1.19012 5.83188 0.799988 6.18655 0.799988 6.62396V8.94623C0.799988 9.38364 1.19012 9.73839 1.67137 9.73839H3.13563C3.22025 9.96045 3.3191 10.1775 3.43208 10.3889L2.39661 11.3301C2.05634 11.6395 2.05634 12.1411 2.39661 12.4504L4.20283 14.0924C4.54319 14.4016 5.09474 14.4017 5.4351 14.0924L6.47057 13.1511C6.70292 13.2538 6.94177 13.3438 7.18603 13.4206V14.7518C7.18603 15.1892 7.57617 15.544 8.05741 15.544H10.6119C11.0931 15.544 11.4833 15.1893 11.4833 14.7518V13.4206C11.7275 13.3437 11.9663 13.2538 12.1987 13.1511L13.2342 14.0924C13.5746 14.4017 14.1261 14.4017 14.4665 14.0924L16.2727 12.4504C16.613 12.141 16.613 11.6394 16.2726 11.3301ZM14.0291 8.76901C13.9091 9.24408 13.704 9.69427 13.4194 10.107C13.2036 10.4198 13.2544 10.8268 13.5416 11.0878L14.4243 11.8902L13.8503 12.4121L12.9675 11.6096C12.6803 11.3485 12.2328 11.3026 11.8887 11.4985C11.4345 11.7573 10.9394 11.9438 10.4171 12.0527C10.0211 12.1353 9.74061 12.4556 9.74061 12.8249V13.9596H8.92888V12.8249C8.92888 12.4556 8.64834 12.1354 8.25243 12.0527C7.73012 11.9438 7.23501 11.7573 6.78079 11.4985C6.43697 11.3027 5.98923 11.3484 5.70194 11.6096L4.81919 12.4121L4.24523 11.8902L5.1279 11.0878C5.4151 10.8267 5.46577 10.4198 5.25012 10.107C4.9655 9.69427 4.76034 9.24408 4.64034 8.76901C4.5495 8.40917 4.19723 8.15414 3.7911 8.15414H2.54265V7.41621H3.79083C4.19688 7.41621 4.54914 7.16118 4.64008 6.80142C4.76017 6.32627 4.96523 5.87616 5.24986 5.46348C5.46568 5.15067 5.41492 4.74372 5.12772 4.48263L4.24497 3.68012L4.81901 3.15835L5.70168 3.96085C5.98888 4.22202 6.43661 4.26784 6.78061 4.07188C7.23465 3.81313 7.72977 3.62671 8.25217 3.5177C8.64808 3.43511 8.92861 3.11479 8.92861 2.74558V1.61063H9.74035V2.74542C9.74035 3.11463 10.0209 3.43487 10.4168 3.51754C10.9393 3.62655 11.4343 3.81297 11.8883 4.07172C12.2324 4.26784 12.6802 4.22194 12.9673 3.96069L13.85 3.15819L14.424 3.67996L13.5412 4.48247C13.254 4.74364 13.2034 5.15051 13.4191 5.46332C13.7037 5.876 13.9088 6.32619 14.0289 6.80126C14.1197 7.16101 14.4721 7.41604 14.8781 7.41604H16.1263V8.15398H14.8781C14.4722 8.15406 14.12 8.40909 14.0291 8.76901Z" fill="inherit" fill-opacity="0.87"/>
        <path d="M9.33456 4.74115C7.48825 4.74115 5.98621 6.10664 5.98621 7.78511C5.98621 9.46357 7.48825 10.8291 9.33456 10.8291C11.1809 10.8291 12.6829 9.46357 12.6829 7.78511C12.6829 6.10664 11.181 4.74115 9.33456 4.74115ZM9.33456 9.24483C8.44914 9.24483 7.72887 8.59004 7.72887 7.78511C7.72887 6.98018 8.44923 6.32539 9.33456 6.32539C10.2199 6.32539 10.9403 6.98018 10.9403 7.78511C10.9403 8.59004 10.22 9.24483 9.33456 9.24483Z" fill="inherit" fill-opacity="0.87"/>
        <path d="M26.6292 16.8657C27.0078 16.8022 27.2581 16.4718 27.1883 16.1276L26.8595 14.5072C26.8259 14.3419 26.7215 14.1955 26.5693 14.1002C26.4171 14.005 26.2292 13.9685 26.0475 13.999L25.0804 14.1611C25.0055 14.0441 24.9243 13.9304 24.8375 13.8203L25.3951 13.0841C25.4999 12.9456 25.54 12.775 25.5065 12.6097C25.473 12.4444 25.3685 12.2981 25.2163 12.2028L23.7233 11.2683C23.4065 11.0699 22.9723 11.1425 22.7539 11.4308L22.1963 12.1671C22.0522 12.1326 21.9065 12.1044 21.7595 12.0825L21.5811 11.2033C21.5112 10.8592 21.1473 10.6314 20.7691 10.6951L18.9867 10.9941C18.8048 11.0245 18.6438 11.1195 18.539 11.2578C18.4342 11.3963 18.3941 11.5669 18.4276 11.7322L18.606 12.6113C18.4772 12.6796 18.3522 12.7532 18.2311 12.8322L17.4212 12.3253C17.2689 12.23 17.0812 12.1937 16.8995 12.224C16.7176 12.2545 16.5566 12.3494 16.4518 12.4879L15.4239 13.8451C15.319 13.9836 15.279 14.1541 15.3125 14.3194C15.346 14.4847 15.4505 14.6311 15.6028 14.7264L16.4126 15.2332C16.3746 15.3643 16.3436 15.4967 16.3195 15.6304L15.3524 15.7926C15.1705 15.8231 15.0095 15.918 14.9047 16.0564C14.7998 16.1949 14.7598 16.3654 14.7933 16.5307L15.1222 18.1511C15.1921 18.4953 15.5555 18.7232 15.9341 18.6593L16.9012 18.4972C16.9762 18.6142 17.0573 18.728 17.1442 18.838L16.5866 19.5742C16.4818 19.7127 16.4417 19.8832 16.4752 20.0485C16.5087 20.2139 16.6132 20.3602 16.7654 20.4555L18.2584 21.3899C18.5752 21.5883 19.0095 21.5157 19.2277 21.2274L19.7853 20.4912C19.9294 20.5257 20.0751 20.5539 20.2222 20.5759L20.4006 21.455C20.4626 21.7603 20.7556 21.9739 21.0853 21.9739C21.1273 21.9739 21.1699 21.9705 21.2125 21.9633L22.995 21.6644C23.1769 21.6339 23.3379 21.5389 23.4427 21.4006C23.5475 21.2621 23.5875 21.0915 23.554 20.9263L23.3756 20.0471C23.5044 19.9789 23.6295 19.9052 23.7506 19.8262L24.5603 20.3331C24.7127 20.4285 24.9002 20.4649 25.0821 20.4344C25.264 20.4039 25.425 20.309 25.5298 20.1705L26.5577 18.8133C26.776 18.525 26.696 18.1305 26.3789 17.9321L25.5691 17.4251C25.6071 17.2941 25.6381 17.1617 25.6622 17.028L26.6292 16.8657ZM24.8972 15.8675C24.5776 15.9211 24.3411 16.1684 24.3273 16.4635C24.3113 16.8008 24.2338 17.131 24.0969 17.445C23.9771 17.7196 24.0819 18.033 24.3496 18.2005L25.0142 18.6166L24.7769 18.93L24.1123 18.514C23.8445 18.3464 23.4851 18.3692 23.2459 18.5689C22.972 18.7972 22.6603 18.9809 22.3193 19.1149C22.021 19.232 21.8513 19.5211 21.9102 19.8115L22.0566 20.5331L21.6451 20.6021L21.4987 19.8806C21.4398 19.5901 21.1679 19.3751 20.8433 19.3625C20.4719 19.3478 20.1086 19.2774 19.7633 19.153C19.6796 19.1229 19.5927 19.1084 19.5068 19.1084C19.2827 19.1084 19.0655 19.207 18.9324 19.3827L18.4748 19.9869L18.13 19.7712L18.5876 19.1671C18.7719 18.9238 18.7468 18.597 18.5272 18.3793C18.2761 18.1304 18.074 17.847 17.9266 17.5368C17.7976 17.2657 17.4789 17.1114 17.1603 17.1651L16.3666 17.2982L16.2906 16.9242L17.0844 16.7911C17.404 16.7375 17.6404 16.4902 17.6543 16.1951C17.6703 15.8577 17.7478 15.5276 17.8847 15.2134C18.0044 14.9388 17.8996 14.6255 17.6319 14.4579L16.9673 14.042L17.2046 13.7286L17.8692 14.1446C18.1371 14.3123 18.4963 14.2893 18.7357 14.0897C19.0096 13.8614 19.3213 13.6777 19.6625 13.5436C19.9606 13.4264 20.1303 13.1374 20.0714 12.847L19.925 12.1254L20.3364 12.0564L20.4828 12.778C20.5418 13.0686 20.8138 13.2835 21.1384 13.2961C21.5095 13.3107 21.8727 13.3811 22.2181 13.5056C22.5204 13.6145 22.865 13.5191 23.0491 13.2758L23.5068 12.6716L23.8515 12.8873L23.3939 13.4915C23.2097 13.7349 23.2347 14.0616 23.4544 14.2793C23.7055 14.5282 23.9075 14.8115 24.0549 15.1216C24.1837 15.3927 24.502 15.5471 24.8212 15.4934L25.615 15.3604L25.6909 15.7344L24.8972 15.8675Z" fill="inherit" fill-opacity="0.87"/>
        <path d="M22.3828 14.4911C21.8428 14.1532 21.1901 14.0266 20.5454 14.1347C19.9006 14.2428 19.3407 14.5728 18.9689 15.0637C18.2012 16.0772 18.4838 17.4695 19.5986 18.1673C20.0228 18.4328 20.5074 18.5601 20.9871 18.5601C21.7683 18.5601 22.5371 18.2226 23.0127 17.5947C23.7802 16.5812 23.4977 15.1889 22.3828 14.4911ZM21.8644 16.876C21.5328 17.3138 20.871 17.4248 20.3894 17.1234C19.9077 16.8219 19.7856 16.2203 20.1172 15.7825C20.1173 15.7824 20.1173 15.7824 20.1173 15.7824C20.2778 15.5703 20.5198 15.4277 20.7984 15.381C20.8633 15.3702 20.9284 15.3648 20.993 15.3648C21.2058 15.3648 21.4133 15.4231 21.5922 15.5351C22.0739 15.8366 22.1961 16.4381 21.8644 16.876Z" fill="inherit" fill-opacity="0.87"/>
    </g>

    <g id="gitHub">
        <path d="M15.4995 0.812317C7.21661 0.812317 0.5 7.55409 0.5 15.8728C0.5 22.5255 4.79726 28.1704 10.76 30.1615C11.5095 30.3004 11.7829 29.8354 11.7829 29.4357C11.7829 29.0786 11.7698 28.1317 11.7626 26.8746C7.58919 27.7857 6.70903 24.8559 6.70903 24.8559C6.02774 23.1159 5.04452 22.6538 5.04452 22.6538C3.68194 21.7189 5.1471 21.7368 5.1471 21.7368C6.65194 21.8428 7.44403 23.2896 7.44403 23.2896C8.78339 25.5909 10.956 24.9255 11.8105 24.5399C11.9455 23.5673 12.334 22.903 12.7623 22.527C9.43226 22.1462 5.93097 20.8552 5.93097 15.0851C5.93097 13.4413 6.515 12.0967 7.47452 11.0428C7.31919 10.662 6.80484 9.13151 7.62064 7.05861C7.62064 7.05861 8.88064 6.65409 11.7456 8.60216C12.9423 8.26828 14.2255 8.10135 15.5015 8.09457C16.7745 8.10135 18.0587 8.2678 19.2573 8.60216C22.1198 6.65409 23.3779 7.05861 23.3779 7.05861C24.1956 9.13151 23.6813 10.662 23.5265 11.0428C24.4884 12.0967 25.069 13.4409 25.069 15.0851C25.069 20.8697 21.5619 22.1423 18.2203 22.5159C18.7589 22.9809 19.2384 23.8993 19.2384 25.3049C19.2384 27.3188 19.2205 28.9417 19.2205 29.4357C19.2205 29.8393 19.491 30.3081 20.2516 30.1596C26.2066 28.1646 30.5 22.5236 30.5 15.8728C30.5 7.55409 23.7834 0.812317 15.4995 0.812317Z" fill="white"/>
        <path d="M15.4995 0.812317C7.21661 0.812317 0.5 7.55409 0.5 15.8728C0.5 22.5255 4.79726 28.1704 10.76 30.1615C11.5095 30.3004 11.7829 29.8354 11.7829 29.4357C11.7829 29.0786 11.7698 28.1317 11.7626 26.8746C7.58919 27.7857 6.70903 24.8559 6.70903 24.8559C6.02774 23.1159 5.04452 22.6538 5.04452 22.6538C3.68194 21.7189 5.1471 21.7368 5.1471 21.7368C6.65194 21.8428 7.44403 23.2896 7.44403 23.2896C8.78339 25.5909 10.956 24.9255 11.8105 24.5399C11.9455 23.5673 12.334 22.903 12.7623 22.527C9.43226 22.1462 5.93097 20.8552 5.93097 15.0851C5.93097 13.4413 6.515 12.0967 7.47452 11.0428C7.31919 10.662 6.80484 9.13151 7.62064 7.05861C7.62064 7.05861 8.88064 6.65409 11.7456 8.60216C12.9423 8.26828 14.2255 8.10135 15.5015 8.09457C16.7745 8.10135 18.0587 8.2678 19.2573 8.60216C22.1198 6.65409 23.3779 7.05861 23.3779 7.05861C24.1956 9.13151 23.6813 10.662 23.5265 11.0428C24.4884 12.0967 25.069 13.4409 25.069 15.0851C25.069 20.8697 21.5619 22.1423 18.2203 22.5159C18.7589 22.9809 19.2384 23.8993 19.2384 25.3049C19.2384 27.3188 19.2205 28.9417 19.2205 29.4357C19.2205 29.8393 19.491 30.3081 20.2516 30.1596C26.2066 28.1646 30.5 22.5236 30.5 15.8728C30.5 7.55409 23.7834 0.812317 15.4995 0.812317Z" fill="white"/>
        <path d="M23.3929 7.10059C24.1869 9.15123 23.6803 10.6648 23.526 11.0427C24.4879 12.0966 25.0686 13.4407 25.0686 15.0849C25.0686 20.8696 21.5615 22.1422 18.2198 22.5157C18.7584 22.9807 19.2379 23.8991 19.2379 25.3048C19.2379 27.3187 19.22 28.9416 19.22 29.4356C19.22 29.8391 19.4905 30.308 20.2511 30.1595C26.2066 28.1645 30.5 22.5235 30.5 15.8727C30.5 14.0848 30.1884 12.3709 29.6189 10.7799C27.5508 8.60252 25.249 7.15236 23.3929 7.10059Z" fill="white"/>
        <path d="M12.1719 23.3219C12.3403 22.9823 12.546 22.7181 12.7623 22.5269C10.9371 22.3179 9.06258 21.8306 7.73919 20.486C8.75726 22.1805 10.415 22.9513 12.1719 23.3219Z" fill="white"/>
        <path d="M1.28097 16.888C1.28097 8.56925 7.99758 1.82748 16.2805 1.82748C20.8797 1.82748 24.9935 3.90764 27.7444 7.17958C25.0274 3.32796 20.5574 0.812317 15.4995 0.812317C7.21661 0.812317 0.5 7.55409 0.5 15.8728C0.5 19.5817 1.8379 22.9751 4.05355 25.5981C2.31113 23.1386 1.28097 20.1357 1.28097 16.888Z" fill="white"/>
        <path d="M20.0189 26.3205C20.0189 24.9154 19.5394 23.9955 19.0008 23.5305C22.3424 23.158 25.85 21.8844 25.85 16.1002C25.85 14.456 25.2694 13.1123 24.3065 12.0584C24.4623 11.6776 24.9776 10.1467 24.1579 8.07425C24.1579 8.07425 24.0021 8.02634 23.6803 8.04473C24.0316 9.60763 23.6552 10.7254 23.526 11.0428C24.4879 12.0967 25.0685 13.4409 25.0685 15.0851C25.0685 20.8697 21.5615 22.1423 18.2198 22.5159C18.7584 22.9809 19.2379 23.8992 19.2379 25.3049C19.2379 27.3188 19.22 28.9417 19.22 29.4357C19.22 29.7909 19.4315 30.1959 20.0015 30.1862C20.0053 29.5054 20.0189 28.06 20.0189 26.3205Z" fill="white"/>
        <path d="M7.60468 26.1448C7.91968 26.7932 8.97839 28.3464 11.7713 28.0193C11.7674 27.6777 11.7645 27.295 11.7626 26.8745C9.6079 27.3448 8.33581 26.7903 7.60468 26.1448Z" fill="white"/>
        <path d="M8.14323 24.1726C8.04694 24.0274 7.86645 23.7811 7.60468 23.5349C7.77452 23.7869 7.955 23.9984 8.14323 24.1726Z" fill="white"/>
    </g>

</svg>
