<svg xmlns="http://www.w3.org/2000/svg" width="50" height="50" viewBox="0 0 50 50">
    <g id="html5">
        <path style=" stroke:none;fill-rule:nonzero;fill:rgb(89.411765%,30.196078%,14.901961%);fill-opacity:1;"
              d="M 6.75 9.5 C 18.628906 9.5 30.511719 9.5 42.75 9.5 C 42.75 12.5 42.75 12.5 42.5 13 C 42.417969 13.730469 42.34375 14.457031 42.28125 15.191406 C 42.261719 15.414062 42.242188 15.636719 42.222656 15.867188 C 42.179688 16.347656 42.136719 16.828125 42.097656 17.308594 C 41.984375 18.582031 41.871094 19.855469 41.757812 21.125 C 41.726562 21.507812 41.726562 21.507812 41.691406 21.890625 C 41.523438 23.773438 41.335938 25.652344 41.140625 27.53125 C 40.503906 33.679688 40.023438 39.84375 39.5 46 C 39.269531 46.0625 39.042969 46.128906 38.804688 46.191406 C 36.894531 46.710938 36.894531 46.710938 35.03125 47.375 C 33.421875 48.007812 31.707031 48.363281 30.03125 48.78125 C 29.496094 48.914062 28.960938 49.050781 28.429688 49.1875 C 27.949219 49.308594 27.46875 49.429688 26.988281 49.550781 C 26.273438 49.71875 26.273438 49.71875 25.75 50 C 25.289062 50.050781 25.289062 50.050781 24.734375 50.0625 C 24.46875 50.070312 24.46875 50.070312 24.195312 50.082031 C 23.386719 49.988281 22.703125 49.742188 21.9375 49.476562 C 20.503906 49.003906 19.035156 48.648438 17.578125 48.265625 C 16.621094 48.011719 15.660156 47.761719 14.703125 47.503906 C 14.050781 47.328125 13.402344 47.167969 12.75 47.015625 C 12.433594 46.9375 12.117188 46.859375 11.792969 46.78125 C 11.507812 46.714844 11.222656 46.648438 10.929688 46.578125 C 10.25 46.25 10.25 46.25 9.917969 45.625 C 9.699219 44.492188 9.59375 43.375 9.507812 42.226562 C 9.488281 41.980469 9.46875 41.734375 9.449219 41.480469 C 9.410156 40.957031 9.367188 40.433594 9.328125 39.910156 C 9.222656 38.535156 9.113281 37.160156 9 35.789062 C 8.96875 35.382812 8.96875 35.382812 8.933594 34.972656 C 8.78125 33.054688 8.59375 31.144531 8.375 29.234375 C 7.941406 25.460938 7.644531 21.671875 7.339844 17.886719 C 7.320312 17.636719 7.296875 17.386719 7.277344 17.125 C 7.238281 16.648438 7.199219 16.175781 7.160156 15.699219 C 7.144531 15.484375 7.125 15.273438 7.109375 15.050781 C 7.09375 14.867188 7.078125 14.679688 7.0625 14.488281 C 7.007812 13.949219 7.007812 13.949219 6.75 13.25 C 6.75 12.011719 6.75 10.773438 6.75 9.5 Z M 6.75 9.5 "/>
        <path style=" stroke:none;fill-rule:nonzero;fill:rgb(92.54902%,90.196078%,89.411765%);fill-opacity:1;"
              d="M 13.5 17 C 20.84375 17 28.183594 17 35.75 17 C 35.667969 18.484375 35.585938 19.96875 35.5 21.5 C 29.890625 21.5 24.28125 21.5 18.5 21.5 C 18.582031 21.914062 18.664062 22.324219 18.75 22.75 C 18.75 23.824219 18.75 24.894531 18.75 26 C 24.113281 26 29.476562 26 35 26 C 34.710938 32.09375 34.710938 32.09375 34.5 34.25 C 34.335938 34.25 34.171875 34.25 34 34.25 C 34.003906 34.457031 34.003906 34.667969 34.007812 34.882812 C 34.023438 36.53125 33.972656 38.117188 33.75 39.75 C 33.089844 39.832031 32.429688 39.914062 31.75 40 C 31.75 40.164062 31.75 40.328125 31.75 40.5 C 31.460938 40.5625 31.171875 40.625 30.875 40.6875 C 30.085938 40.859375 29.300781 41.050781 28.523438 41.257812 C 28.347656 41.300781 28.175781 41.347656 27.996094 41.394531 C 27.652344 41.484375 27.304688 41.574219 26.960938 41.667969 C 24.695312 42.261719 22.863281 41.847656 20.640625 41.296875 C 20.230469 41.199219 20.230469 41.199219 19.8125 41.097656 C 18.332031 40.738281 16.898438 40.359375 15.5 39.75 C 15.160156 39.070312 15.222656 38.539062 15.226562 37.78125 C 15.226562 37.488281 15.226562 37.195312 15.226562 36.894531 C 15.230469 36.589844 15.230469 36.285156 15.234375 35.96875 C 15.234375 35.660156 15.238281 35.351562 15.238281 35.035156 C 15.242188 34.273438 15.246094 33.511719 15.25 32.75 C 16.652344 32.75 18.054688 32.75 19.5 32.75 C 19.625 34.484375 19.625 34.484375 19.75 36.25 C 20.21875 36.320312 20.6875 36.394531 21.171875 36.46875 C 21.960938 36.589844 22.644531 36.707031 23.378906 37.015625 C 24.757812 37.535156 25.9375 37.171875 27.296875 36.75 C 28.925781 36.25 28.925781 36.25 29.75 36.25 C 29.746094 36.105469 29.746094 35.964844 29.742188 35.816406 C 29.722656 34.015625 29.859375 32.320312 30 30.5 C 24.96875 30.5 19.933594 30.5 14.75 30.5 C 13.917969 23.277344 13.917969 23.277344 13.804688 20.9375 C 13.730469 19.625 13.609375 18.3125 13.5 17 Z M 13.5 17 "/>
        <path style=" stroke:none;fill-rule:nonzero;fill:rgb(94.117647%,40%,17.254902%);fill-opacity:1;"
              d="M 24.75 12.75 C 29.453125 12.75 34.15625 12.75 39 12.75 C 39 15.847656 39 15.847656 38.898438 17.183594 C 38.878906 17.472656 38.855469 17.757812 38.835938 18.054688 C 38.8125 18.347656 38.789062 18.636719 38.765625 18.9375 C 38.742188 19.230469 38.722656 19.527344 38.699219 19.832031 C 38.59375 21.230469 38.449219 22.609375 38.25 24 C 38.179688 24.933594 38.140625 25.867188 38.097656 26.804688 C 38.027344 28.222656 38.027344 28.222656 37.75 28.5 C 37.707031 29.25 37.679688 30 37.65625 30.75 C 37.566406 33.113281 37.320312 35.4375 37.023438 37.785156 C 36.78125 39.6875 36.597656 41.582031 36.5 43.5 C 34.832031 44.085938 33.148438 44.550781 31.4375 44.984375 C 29.542969 45.46875 27.667969 45.980469 25.808594 46.585938 C 25.25 46.75 25.25 46.75 24.75 46.75 C 24.734375 46.449219 24.71875 46.148438 24.703125 45.835938 C 24.683594 45.445312 24.660156 45.050781 24.640625 44.65625 C 24.628906 44.457031 24.621094 44.257812 24.609375 44.054688 C 24.578125 42.992188 24.578125 42.992188 24.25 42 C 24.386719 41.972656 24.523438 41.945312 24.667969 41.917969 C 25.292969 41.789062 25.921875 41.660156 26.546875 41.53125 C 26.871094 41.464844 26.871094 41.464844 27.203125 41.398438 C 28.269531 41.179688 29.242188 40.921875 30.25 40.5 C 31.078125 40.46875 31.078125 40.46875 31.75 40.5 C 31.75 40.335938 31.75 40.171875 31.75 40 C 32.410156 39.917969 33.070312 39.835938 33.75 39.75 C 33.832031 37.933594 33.914062 36.121094 34 34.25 C 34.164062 34.25 34.328125 34.25 34.5 34.25 C 34.496094 34.09375 34.488281 33.9375 34.484375 33.777344 C 34.429688 31.121094 34.742188 28.710938 35 26 C 29.636719 26 24.273438 26 18.75 26 C 18.667969 24.515625 18.585938 23.03125 18.5 21.5 C 24.109375 21.5 29.71875 21.5 35.5 21.5 C 35.5 20.675781 35.5 19.851562 35.5 19 C 35.582031 18.339844 35.664062 17.679688 35.75 17 C 32.121094 17 28.488281 17 24.75 17 C 24.75 15.597656 24.75 14.195312 24.75 12.75 Z M 24.75 12.75 "/>
        <path style=" stroke:none;fill-rule:nonzero;fill:rgb(99.607843%,98.823529%,98.431373%);fill-opacity:1;"
              d="M 24.75 26.25 C 28.050781 26.25 31.351562 26.25 34.75 26.25 C 34.75 32.054688 34.75 32.054688 34.5 34.25 C 34.335938 34.25 34.171875 34.25 34 34.25 C 34.003906 34.457031 34.003906 34.667969 34.007812 34.882812 C 34.023438 36.53125 33.972656 38.117188 33.75 39.75 C 33.089844 39.832031 32.429688 39.914062 31.75 40 C 31.75 40.164062 31.75 40.328125 31.75 40.5 C 31.460938 40.5625 31.171875 40.625 30.875 40.6875 C 30.085938 40.859375 29.300781 41.050781 28.523438 41.257812 C 28.347656 41.300781 28.175781 41.347656 27.996094 41.394531 C 27.652344 41.484375 27.304688 41.574219 26.960938 41.667969 C 24.695312 42.261719 22.863281 41.847656 20.640625 41.296875 C 20.367188 41.230469 20.09375 41.167969 19.8125 41.097656 C 18.332031 40.738281 16.898438 40.359375 15.5 39.75 C 15.160156 39.070312 15.222656 38.539062 15.226562 37.78125 C 15.226562 37.488281 15.226562 37.195312 15.226562 36.894531 C 15.230469 36.589844 15.230469 36.285156 15.234375 35.96875 C 15.234375 35.660156 15.238281 35.351562 15.238281 35.035156 C 15.242188 34.273438 15.246094 33.511719 15.25 32.75 C 16.652344 32.75 18.054688 32.75 19.5 32.75 C 19.625 34.484375 19.625 34.484375 19.75 36.25 C 20.21875 36.320312 20.6875 36.394531 21.171875 36.46875 C 21.960938 36.589844 22.644531 36.707031 23.378906 37.015625 C 24.757812 37.535156 25.9375 37.171875 27.296875 36.75 C 28.925781 36.25 28.925781 36.25 29.75 36.25 C 29.746094 36.105469 29.746094 35.964844 29.742188 35.816406 C 29.722656 34.03125 29.847656 32.277344 30 30.5 C 28.265625 30.5 26.535156 30.5 24.75 30.5 C 24.75 29.097656 24.75 27.695312 24.75 26.25 Z M 24.75 26.25 "/>
        <path style=" stroke:none;fill-rule:nonzero;fill:rgb(91.764706%,90.588235%,90.196078%);fill-opacity:1;"
              d="M 15.25 32.75 C 16.652344 32.75 18.054688 32.75 19.5 32.75 C 19.625 34.484375 19.625 34.484375 19.75 36.25 C 20.464844 36.355469 21.183594 36.460938 21.898438 36.566406 C 22.75 36.75 22.75 36.75 24.75 37.5 C 24.75 38.984375 24.75 40.46875 24.75 42 C 23.152344 41.800781 21.679688 41.53125 20.125 41.15625 C 19.898438 41.105469 19.675781 41.050781 19.445312 41 C 18.085938 40.671875 16.785156 40.300781 15.5 39.75 C 15.160156 39.070312 15.222656 38.539062 15.226562 37.78125 C 15.226562 37.488281 15.226562 37.195312 15.226562 36.894531 C 15.230469 36.589844 15.230469 36.285156 15.234375 35.96875 C 15.234375 35.660156 15.238281 35.351562 15.238281 35.035156 C 15.242188 34.273438 15.246094 33.511719 15.25 32.75 Z M 15.25 32.75 "/>
        <path style=" stroke:none;fill-rule:nonzero;fill:rgb(0%,0%,0%);fill-opacity:1;"
              d="M 24.75 0 C 25.738281 0 26.730469 0 27.75 0 C 28.4375 0.75 28.4375 0.75 28.75 1.5 C 28.851562 1.253906 28.957031 1.003906 29.0625 0.75 C 29.289062 0.503906 29.515625 0.253906 29.75 0 C 30.738281 0 31.730469 0 32.75 0 C 32.75 2.308594 32.75 4.621094 32.75 7 C 31.84375 7 30.933594 7 30 7 C 29.917969 6.339844 29.835938 5.679688 29.75 5 C 29.585938 5.328125 29.421875 5.660156 29.25 6 C 29.003906 6 28.753906 6 28.5 6 C 28.078125 5.5 28.078125 5.5 27.75 5 C 27.667969 5.660156 27.585938 6.320312 27.5 7 C 26.59375 7 25.683594 7 24.75 7 C 24.75 4.691406 24.75 2.378906 24.75 0 Z M 24.75 0 "/>
        <path style=" stroke:none;fill-rule:nonzero;fill:rgb(0%,0%,0%);fill-opacity:1;"
              d="M 10 0 C 10.90625 0 11.816406 0 12.75 0 C 12.75 0.660156 12.75 1.320312 12.75 2 C 13.328125 2 13.90625 2 14.5 2 C 14.5 1.339844 14.5 0.679688 14.5 0 C 15.40625 0 16.316406 0 17.25 0 C 17.25 2.308594 17.25 4.621094 17.25 7 C 16.34375 7 15.433594 7 14.5 7 C 14.5 6.257812 14.5 5.515625 14.5 4.75 C 13.921875 4.75 13.34375 4.75 12.75 4.75 C 12.75 5.492188 12.75 6.234375 12.75 7 C 11.84375 7 10.933594 7 10 7 C 10 4.691406 10 2.378906 10 0 Z M 10 0 "/>
        <path style=" stroke:none;fill-rule:nonzero;fill:rgb(100%,99.607843%,99.607843%);fill-opacity:1;"
              d="M 24.75 17.25 C 28.296875 17.25 31.84375 17.25 35.5 17.25 C 35.417969 18.570312 35.335938 19.890625 35.25 21.25 C 31.785156 21.25 28.320312 21.25 24.75 21.25 C 24.75 19.929688 24.75 18.609375 24.75 17.25 Z M 24.75 17.25 "/>
        <path style=" stroke:none;fill-rule:nonzero;fill:rgb(94.117647%,41.960784%,20%);fill-opacity:1;"
              d="M 14.75 30.5 C 19.78125 30.5 24.816406 30.5 30 30.5 C 30 32.472656 29.996094 34.3125 29.75 36.25 C 29.074219 36.460938 28.398438 36.667969 27.71875 36.875 C 27.433594 36.964844 27.433594 36.964844 27.140625 37.054688 C 26.0625 37.382812 25.140625 37.574219 24 37.5 C 24.246094 37.417969 24.496094 37.335938 24.75 37.25 C 24.75 35.105469 24.75 32.960938 24.75 30.75 C 21.449219 30.75 18.148438 30.75 14.75 30.75 C 14.75 30.667969 14.75 30.585938 14.75 30.5 Z M 14.75 30.5 "/>
        <path style=" stroke:none;fill-rule:nonzero;fill:rgb(0%,0%,0%);fill-opacity:1;"
              d="M 17.5 0 C 19.726562 0 21.953125 0 24.25 0 C 24.25 0.824219 24.25 1.648438 24.25 2.5 C 23.671875 2.5 23.09375 2.5 22.5 2.5 C 22.5 3.984375 22.5 5.46875 22.5 7 C 21.511719 7 20.519531 7 19.5 7 C 19.5 5.515625 19.5 4.03125 19.5 2.5 C 18.839844 2.5 18.179688 2.5 17.5 2.5 C 17.5 1.675781 17.5 0.851562 17.5 0 Z M 17.5 0 "/>
        <path style=" stroke:none;fill-rule:nonzero;fill:rgb(0%,0%,0%);fill-opacity:1;"
              d="M 33.25 0 C 34.238281 0 35.230469 0 36.25 0 C 36.25 1.402344 36.25 2.804688 36.25 4.25 C 37.324219 4.25 38.394531 4.25 39.5 4.25 C 39.5 5.15625 39.5 6.066406 39.5 7 C 37.4375 7 35.375 7 33.25 7 C 33.25 4.691406 33.25 2.378906 33.25 0 Z M 33.25 0 "/>
        <path style=" stroke:none;fill-rule:nonzero;fill:rgb(89.411765%,30.196078%,14.509804%);fill-opacity:1;"
              d="M 18.75 21.75 C 20.730469 21.75 22.710938 21.75 24.75 21.75 C 24.75 23.070312 24.75 24.390625 24.75 25.75 C 22.851562 25.75 20.953125 25.75 19 25.75 C 18.570312 24.460938 18.738281 23.101562 18.75 21.75 Z M 18.75 21.75 "/>
    </g>
    <g id="css3">
        <path style=" stroke:none;fill-rule:nonzero;fill:rgb(12.156863%,37.647059%,69.019608%);fill-opacity:1;"
              d="M 6.898438 9.769531 C 18.65625 9.769531 30.414062 9.769531 42.527344 9.769531 C 42.527344 11.382812 42.527344 12.996094 42.527344 14.65625 C 42.339844 14.65625 42.148438 14.65625 41.953125 14.65625 C 41.960938 14.820312 41.964844 14.984375 41.972656 15.15625 C 42.019531 17.625 41.765625 20.046875 41.511719 22.5 C 41.375 23.804688 41.246094 25.113281 41.117188 26.421875 C 41.089844 26.6875 41.0625 26.953125 41.035156 27.226562 C 40.773438 29.863281 40.550781 32.503906 40.335938 35.148438 C 39.886719 40.703125 39.886719 40.703125 39.621094 43.425781 C 39.597656 43.65625 39.574219 43.886719 39.554688 44.121094 C 39.402344 45.621094 39.402344 45.621094 39.082031 46.265625 C 38.449219 46.484375 37.808594 46.679688 37.164062 46.855469 C 36.867188 46.9375 36.867188 46.9375 36.570312 47.019531 C 35.941406 47.195312 35.308594 47.367188 34.679688 47.539062 C 34.269531 47.652344 33.855469 47.769531 33.441406 47.882812 C 31.320312 48.472656 29.195312 49.035156 27.050781 49.542969 C 26.445312 49.65625 26.445312 49.65625 26.148438 50 C 25.574219 50.058594 25.574219 50.058594 24.839844 50.070312 C 24.480469 50.082031 24.480469 50.082031 24.117188 50.09375 C 23.226562 49.996094 22.5 49.71875 21.671875 49.390625 C 20.199219 48.855469 18.667969 48.515625 17.152344 48.132812 C 16.480469 47.960938 15.8125 47.792969 15.144531 47.621094 C 14.660156 47.496094 14.660156 47.496094 14.167969 47.371094 C 12.796875 47.015625 11.425781 46.644531 10.058594 46.265625 C 9.527344 42.101562 9.164062 37.925781 8.800781 33.746094 C 8.28125 27.78125 8.28125 27.78125 7.695312 21.820312 C 7.65625 21.425781 7.65625 21.425781 7.613281 21.023438 C 7.492188 19.820312 7.363281 18.617188 7.230469 17.417969 C 7.1875 16.988281 7.140625 16.5625 7.097656 16.132812 C 7.058594 15.777344 7.019531 15.417969 6.980469 15.050781 C 6.863281 13.292969 6.898438 11.53125 6.898438 9.769531 Z M 6.898438 9.769531 "/>
        <path style=" stroke:none;fill-rule:nonzero;fill:rgb(92.156863%,92.54902%,92.54902%);fill-opacity:1;"
              d="M 13.503906 17.527344 C 20.710938 17.527344 27.917969 17.527344 35.34375 17.527344 C 35.34375 18.949219 35.34375 20.375 35.34375 21.839844 C 32.214844 23.167969 29.085938 24.496094 25.863281 25.863281 C 28.800781 25.957031 31.742188 26.050781 34.769531 26.148438 C 34.625 29.050781 34.445312 31.945312 34.195312 34.84375 C 34.171875 35.121094 34.148438 35.402344 34.125 35.691406 C 34.003906 37.023438 33.867188 38.339844 33.621094 39.65625 C 28.726562 41.335938 28.726562 41.335938 26.5625 41.9375 C 26.199219 42.039062 26.199219 42.039062 25.824219 42.140625 C 23.347656 42.441406 21.113281 41.59375 18.804688 40.785156 C 18.488281 40.679688 18.167969 40.570312 17.84375 40.457031 C 17.066406 40.191406 16.292969 39.925781 15.515625 39.65625 C 15.421875 38.722656 15.324219 37.789062 15.230469 36.851562 C 15.203125 36.589844 15.175781 36.324219 15.148438 36.050781 C 15.121094 35.796875 15.09375 35.539062 15.066406 35.277344 C 15.03125 34.925781 15.03125 34.925781 14.996094 34.566406 C 14.945312 33.964844 14.941406 33.363281 14.941406 32.757812 C 16.460938 32.757812 17.976562 32.757812 19.539062 32.757812 C 19.636719 33.992188 19.730469 35.222656 19.828125 36.496094 C 20.175781 36.535156 20.527344 36.578125 20.886719 36.621094 C 21.558594 36.703125 22.203125 36.796875 22.863281 36.941406 C 24.660156 37.265625 26.078125 36.972656 27.777344 36.394531 C 28.449219 36.207031 28.449219 36.207031 29.597656 36.207031 C 29.691406 34.308594 29.789062 32.414062 29.886719 30.460938 C 24.859375 30.460938 19.832031 30.460938 14.65625 30.460938 C 14.339844 29.515625 14.339844 28.8125 14.351562 27.820312 C 14.351562 27.507812 14.355469 27.195312 14.359375 26.875 C 14.359375 26.632812 14.363281 26.394531 14.367188 26.148438 C 16.355469 25.21875 18.363281 24.347656 20.382812 23.492188 C 20.621094 23.390625 20.859375 23.289062 21.105469 23.183594 C 21.332031 23.089844 21.558594 22.992188 21.792969 22.894531 C 22.097656 22.765625 22.097656 22.765625 22.40625 22.632812 C 22.988281 22.414062 22.988281 22.414062 24.136719 22.125 C 20.722656 22.03125 17.308594 21.9375 13.792969 21.839844 C 13.699219 20.417969 13.601562 18.996094 13.503906 17.527344 Z M 13.503906 17.527344 "/>
        <path style=" stroke:none;fill-rule:nonzero;fill:rgb(24.705882%,61.176471%,83.921569%);fill-opacity:1;"
              d="M 24.710938 12.929688 C 29.453125 12.929688 34.195312 12.929688 39.082031 12.929688 C 38.984375 13.785156 38.890625 14.636719 38.792969 15.515625 C 38.742188 16.125 38.691406 16.734375 38.648438 17.34375 C 38.609375 17.847656 38.609375 17.847656 38.570312 18.363281 C 38.53125 18.902344 38.53125 18.902344 38.492188 19.449219 C 38.433594 20.230469 38.375 21.011719 38.316406 21.789062 C 38.300781 21.992188 38.285156 22.191406 38.269531 22.398438 C 37.734375 29.511719 37.171875 36.609375 36.207031 43.679688 C 35.738281 43.808594 35.738281 43.808594 35.257812 43.941406 C 34.945312 44.027344 34.945312 44.027344 34.628906 44.117188 C 34.167969 44.246094 33.707031 44.371094 33.246094 44.5 C 32.023438 44.839844 30.800781 45.179688 29.578125 45.53125 C 29.347656 45.597656 29.117188 45.660156 28.875 45.730469 C 28.429688 45.855469 27.984375 45.984375 27.539062 46.113281 C 26.550781 46.394531 25.753906 46.550781 24.710938 46.550781 C 24.570312 44.417969 24.570312 44.417969 24.425781 42.242188 C 30.613281 40.351562 30.613281 40.351562 33.621094 39.65625 C 33.632812 39.355469 33.640625 39.054688 33.652344 38.742188 C 33.828125 34.523438 34.300781 30.347656 34.769531 26.148438 C 31.734375 26.148438 28.699219 26.148438 25.574219 26.148438 C 26.492188 25.234375 27.136719 24.9375 28.324219 24.449219 C 28.507812 24.375 28.6875 24.296875 28.875 24.21875 C 29.261719 24.0625 29.644531 23.90625 30.03125 23.75 C 30.621094 23.507812 31.210938 23.265625 31.800781 23.023438 C 34.683594 21.839844 34.683594 21.839844 35.34375 21.839844 C 35.34375 20.417969 35.34375 18.996094 35.34375 17.527344 C 28.136719 17.527344 20.929688 17.527344 13.503906 17.527344 C 13.503906 17.433594 13.503906 17.339844 13.503906 17.242188 C 17.203125 17.242188 20.902344 17.242188 24.710938 17.242188 C 24.710938 15.820312 24.710938 14.398438 24.710938 12.929688 Z M 24.710938 12.929688 "/>
        <path style=" stroke:none;fill-rule:nonzero;fill:rgb(97.647059%,97.647059%,97.647059%);fill-opacity:1;"
              d="M 24.710938 17.527344 C 28.222656 17.527344 31.730469 17.527344 35.34375 17.527344 C 35.34375 18.949219 35.34375 20.375 35.34375 21.839844 C 34.019531 22.410156 32.695312 22.976562 31.371094 23.542969 C 30.921875 23.734375 30.472656 23.929688 30.023438 24.121094 C 29.375 24.398438 28.726562 24.675781 28.078125 24.953125 C 27.875 25.039062 27.675781 25.128906 27.46875 25.214844 C 26.460938 25.644531 25.511719 25.988281 24.425781 26.148438 C 24.417969 25.414062 24.410156 24.675781 24.40625 23.941406 C 24.40625 23.738281 24.402344 23.535156 24.398438 23.328125 C 24.390625 21.367188 24.558594 19.507812 24.710938 17.527344 Z M 24.710938 17.527344 "/>
        <path style=" stroke:none;fill-rule:nonzero;fill:rgb(86.27451%,86.666667%,87.058824%);fill-opacity:1;"
              d="M 14.941406 32.757812 C 16.460938 32.757812 17.976562 32.757812 19.539062 32.757812 C 19.636719 33.992188 19.730469 35.222656 19.828125 36.496094 C 20.140625 36.53125 20.457031 36.566406 20.78125 36.601562 C 22.292969 36.789062 23.789062 37.074219 25.289062 37.355469 C 25.003906 37.5 25.003906 37.5 24.710938 37.644531 C 24.710938 39.160156 24.710938 40.679688 24.710938 42.242188 C 22.628906 42.082031 20.789062 41.46875 18.820312 40.785156 C 18.503906 40.679688 18.183594 40.570312 17.855469 40.457031 C 17.074219 40.191406 16.296875 39.925781 15.515625 39.65625 C 15.421875 38.722656 15.324219 37.789062 15.230469 36.851562 C 15.203125 36.589844 15.175781 36.324219 15.148438 36.050781 C 15.121094 35.796875 15.09375 35.539062 15.066406 35.277344 C 15.042969 35.042969 15.019531 34.808594 14.996094 34.566406 C 14.945312 33.964844 14.941406 33.363281 14.941406 32.757812 Z M 14.941406 32.757812 "/>
        <path style=" stroke:none;fill-rule:nonzero;fill:rgb(0%,0%,0%);fill-opacity:1;"
              d="M 29.308594 0 C 31.300781 0 33.292969 0 35.34375 0 C 35.34375 0.949219 35.34375 1.898438 35.34375 2.875 C 34.871094 2.96875 34.398438 3.0625 33.90625 3.160156 C 34.261719 3.425781 34.261719 3.425781 34.625 3.699219 C 35.34375 4.597656 35.34375 4.597656 35.34375 7.472656 C 33.351562 7.472656 31.363281 7.472656 29.308594 7.472656 C 29.308594 6.523438 29.308594 5.574219 29.308594 4.597656 C 29.785156 4.503906 30.257812 4.40625 30.746094 4.308594 C 30.511719 4.132812 30.273438 3.953125 30.027344 3.773438 C 29.308594 2.875 29.308594 2.875 29.308594 0 Z M 29.308594 0 "/>
        <path style=" stroke:none;fill-rule:nonzero;fill:rgb(0%,0%,0%);fill-opacity:1;"
              d="M 21.839844 0 C 23.734375 0 25.632812 0 27.585938 0 C 27.585938 0.949219 27.585938 1.898438 27.585938 2.875 C 27.113281 2.96875 26.636719 3.0625 26.148438 3.160156 C 26.503906 3.425781 26.503906 3.425781 26.867188 3.699219 C 27.585938 4.597656 27.585938 4.597656 27.585938 7.472656 C 25.691406 7.472656 23.792969 7.472656 21.839844 7.472656 C 21.839844 6.523438 21.839844 5.574219 21.839844 4.597656 C 22.21875 4.503906 22.597656 4.40625 22.988281 4.308594 C 22.800781 4.1875 22.609375 4.0625 22.414062 3.933594 C 21.492188 2.695312 21.765625 1.515625 21.839844 0 Z M 21.839844 0 "/>
        <path style=" stroke:none;fill-rule:nonzero;fill:rgb(0%,0%,0%);fill-opacity:1;"
              d="M 14.082031 0 C 15.976562 0 17.875 0 19.828125 0 C 19.828125 0.949219 19.828125 1.898438 19.828125 2.875 C 18.785156 2.875 17.742188 2.875 16.667969 2.875 C 16.761719 3.441406 16.855469 4.011719 16.953125 4.597656 C 17.902344 4.597656 18.851562 4.597656 19.828125 4.597656 C 19.828125 5.546875 19.828125 6.496094 19.828125 7.472656 C 17.929688 7.472656 16.035156 7.472656 14.082031 7.472656 C 13.800781 6.636719 13.757812 6.09375 13.753906 5.226562 C 13.753906 4.957031 13.753906 4.691406 13.753906 4.417969 C 13.753906 4 13.753906 4 13.757812 3.574219 C 13.757812 3.292969 13.753906 3.015625 13.753906 2.726562 C 13.753906 2.460938 13.753906 2.195312 13.753906 1.921875 C 13.753906 1.675781 13.753906 1.433594 13.757812 1.179688 C 13.792969 0.574219 13.792969 0.574219 14.082031 0 Z M 14.082031 0 "/>
        <path style=" stroke:none;fill-rule:nonzero;fill:rgb(26.666667%,61.568627%,83.921569%);fill-opacity:1;"
              d="M 14.65625 30.460938 C 19.679688 30.460938 24.707031 30.460938 29.886719 30.460938 C 29.886719 34.769531 29.886719 34.769531 29.597656 36.207031 C 28.945312 36.398438 28.292969 36.589844 27.640625 36.78125 C 27.277344 36.886719 26.914062 36.996094 26.539062 37.105469 C 25.574219 37.355469 25.574219 37.355469 24.710938 37.355469 C 24.710938 35.175781 24.710938 32.996094 24.710938 30.746094 C 21.394531 30.746094 18.074219 30.746094 14.65625 30.746094 C 14.65625 30.652344 14.65625 30.558594 14.65625 30.460938 Z M 14.65625 30.460938 "/>
        <path style=" stroke:none;fill-rule:nonzero;fill:rgb(29.803922%,65.098039%,86.27451%);fill-opacity:1;"
              d="M 26.148438 42.242188 C 26.011719 42.347656 25.875 42.453125 25.730469 42.5625 C 25.113281 43.320312 25.140625 43.914062 25.089844 44.882812 C 25.070312 45.195312 25.050781 45.507812 25.03125 45.828125 C 25.023438 46.066406 25.011719 46.304688 25 46.550781 C 24.90625 46.550781 24.808594 46.550781 24.710938 46.550781 C 24.617188 45.128906 24.523438 43.707031 24.425781 42.242188 C 25.140625 41.882812 25.40625 42.019531 26.148438 42.242188 Z M 26.148438 42.242188 "/>
        <path style=" stroke:none;fill-rule:nonzero;fill:rgb(28.627451%,63.529412%,85.098039%);fill-opacity:1;"
              d="M 29.023438 25 C 26.929688 26.3125 26.929688 26.3125 25.574219 26.148438 C 26.535156 25.039062 27.589844 24.46875 29.023438 25 Z M 29.023438 25 "/>
    </g>
    <g id="js">
        <path style=" stroke:none;fill-rule:nonzero;fill:rgb(38.823529%,65.882353%,7.843137%);fill-opacity:1;" d="M 7.261719 9.738281 C 19.007812 9.738281 30.753906 9.738281 42.855469 9.738281 C 42.71875 12.195312 42.71875 12.195312 42.613281 13.394531 C 42.597656 13.535156 42.585938 13.671875 42.574219 13.8125 C 42.535156 14.265625 42.492188 14.71875 42.453125 15.171875 C 42.425781 15.5 42.394531 15.828125 42.367188 16.15625 C 42.296875 16.949219 42.222656 17.742188 42.152344 18.535156 C 42.097656 19.179688 42.039062 19.824219 41.980469 20.46875 C 41.972656 20.558594 41.964844 20.652344 41.957031 20.746094 C 41.9375 20.933594 41.921875 21.121094 41.90625 21.308594 C 41.757812 22.957031 41.613281 24.609375 41.464844 26.257812 C 41.320312 27.855469 41.179688 29.457031 41.035156 31.054688 C 40.878906 32.800781 40.726562 34.546875 40.570312 36.289062 C 40.550781 36.476562 40.535156 36.664062 40.519531 36.847656 C 40.507812 36.984375 40.507812 36.984375 40.496094 37.125 C 40.4375 37.769531 40.378906 38.414062 40.320312 39.058594 C 40.253906 39.84375 40.183594 40.628906 40.113281 41.410156 C 40.074219 41.8125 40.039062 42.210938 40.003906 42.609375 C 39.964844 43.042969 39.925781 43.476562 39.886719 43.910156 C 39.878906 44.039062 39.867188 44.164062 39.855469 44.292969 C 39.804688 44.855469 39.746094 45.40625 39.644531 45.960938 C 38.195312 46.425781 36.734375 46.84375 35.265625 47.246094 C 35.035156 47.3125 34.800781 47.375 34.566406 47.441406 C 33.957031 47.609375 33.347656 47.777344 32.738281 47.945312 C 31.878906 48.183594 31.019531 48.417969 30.164062 48.65625 C 29.707031 48.78125 29.253906 48.90625 28.796875 49.035156 C 28.640625 49.078125 28.640625 49.078125 28.476562 49.121094 C 28.273438 49.179688 28.070312 49.234375 27.863281 49.289062 C 27.417969 49.414062 26.976562 49.539062 26.535156 49.675781 C 26.390625 49.722656 26.246094 49.765625 26.097656 49.8125 C 25.976562 49.851562 25.855469 49.890625 25.730469 49.929688 C 24.949219 50.074219 24.199219 49.84375 23.449219 49.632812 C 23.359375 49.609375 23.269531 49.585938 23.175781 49.558594 C 22.878906 49.476562 22.582031 49.394531 22.285156 49.308594 C 22.074219 49.25 21.863281 49.191406 21.652344 49.132812 C 21.09375 48.980469 20.539062 48.824219 19.980469 48.667969 C 19.429688 48.515625 18.875 48.363281 18.324219 48.207031 C 17.257812 47.914062 16.195312 47.617188 15.128906 47.320312 C 14.632812 47.179688 14.140625 47.042969 13.644531 46.90625 C 13.285156 46.804688 12.925781 46.703125 12.566406 46.605469 C 12.398438 46.558594 12.234375 46.511719 12.066406 46.464844 C 11.839844 46.402344 11.617188 46.339844 11.390625 46.277344 C 11.265625 46.242188 11.140625 46.207031 11.011719 46.167969 C 10.714844 46.082031 10.714844 46.082031 10.476562 45.960938 C 10.421875 45.695312 10.421875 45.695312 10.386719 45.339844 C 10.371094 45.207031 10.359375 45.074219 10.34375 44.9375 C 10.324219 44.71875 10.324219 44.71875 10.300781 44.5 C 10.285156 44.347656 10.269531 44.199219 10.253906 44.042969 C 10.207031 43.574219 10.164062 43.105469 10.117188 42.636719 C 10.105469 42.5 10.09375 42.359375 10.078125 42.21875 C 9.988281 41.257812 9.902344 40.292969 9.816406 39.328125 C 9.789062 39.011719 9.761719 38.699219 9.730469 38.382812 C 9.664062 37.625 9.597656 36.871094 9.527344 36.113281 C 9.472656 35.496094 9.417969 34.882812 9.363281 34.265625 C 9.355469 34.179688 9.347656 34.089844 9.339844 34 C 9.324219 33.820312 9.308594 33.640625 9.292969 33.460938 C 9.144531 31.789062 8.996094 30.117188 8.847656 28.445312 C 8.71875 27.015625 8.589844 25.582031 8.464844 24.152344 C 8.3125 22.480469 8.164062 20.808594 8.015625 19.140625 C 8 18.960938 7.984375 18.785156 7.96875 18.605469 C 7.957031 18.476562 7.957031 18.476562 7.945312 18.339844 C 7.890625 17.726562 7.835938 17.109375 7.78125 16.496094 C 7.707031 15.667969 7.632812 14.839844 7.558594 14.015625 C 7.53125 13.710938 7.503906 13.410156 7.476562 13.105469 C 7.441406 12.691406 7.40625 12.277344 7.367188 11.863281 C 7.355469 11.746094 7.347656 11.625 7.335938 11.5 C 7.324219 11.390625 7.316406 11.277344 7.304688 11.164062 C 7.296875 11.070312 7.289062 10.972656 7.28125 10.875 C 7.257812 10.496094 7.261719 10.117188 7.261719 9.738281 Z M 7.261719 9.738281 "/>
        <path style=" stroke:none;fill-rule:nonzero;fill:rgb(99.607843%,99.607843%,99.215686%);fill-opacity:1;" d="M 13.929688 17.222656 C 21.273438 17.222656 28.621094 17.222656 36.191406 17.222656 C 36.054688 19.414062 36.054688 19.414062 35.96875 20.40625 C 35.957031 20.523438 35.945312 20.640625 35.9375 20.765625 C 35.902344 21.160156 35.867188 21.558594 35.832031 21.957031 C 35.820312 22.097656 35.808594 22.238281 35.796875 22.382812 C 35.605469 24.585938 35.40625 26.789062 35.203125 28.992188 C 35.191406 29.121094 35.179688 29.253906 35.167969 29.386719 C 35.046875 30.699219 34.925781 32.015625 34.800781 33.328125 C 34.753906 33.828125 34.710938 34.328125 34.664062 34.828125 C 34.628906 35.171875 34.597656 35.515625 34.566406 35.863281 C 34.46875 36.898438 34.378906 37.9375 34.316406 38.976562 C 34.289062 39.292969 34.234375 39.59375 34.167969 39.90625 C 34.097656 39.921875 34.027344 39.941406 33.953125 39.960938 C 32.589844 40.304688 31.234375 40.667969 29.890625 41.078125 C 29.128906 41.3125 28.359375 41.507812 27.582031 41.691406 C 27.039062 41.832031 26.511719 42.007812 25.984375 42.191406 C 24.746094 42.472656 23.628906 42.109375 22.445312 41.765625 C 22.257812 41.710938 22.070312 41.660156 21.882812 41.605469 C 21.492188 41.496094 21.101562 41.382812 20.710938 41.273438 C 20.210938 41.128906 19.707031 40.984375 19.207031 40.84375 C 18.726562 40.707031 18.25 40.574219 17.769531 40.4375 C 17.632812 40.398438 17.632812 40.398438 17.492188 40.359375 C 17.238281 40.285156 16.980469 40.210938 16.722656 40.136719 C 16.578125 40.09375 16.429688 40.050781 16.28125 40.007812 C 15.953125 39.90625 15.953125 39.90625 15.832031 39.785156 C 15.804688 39.585938 15.785156 39.382812 15.765625 39.179688 C 15.753906 39.050781 15.742188 38.921875 15.730469 38.789062 C 15.714844 38.648438 15.703125 38.507812 15.691406 38.363281 C 15.679688 38.21875 15.664062 38.074219 15.652344 37.925781 C 15.625 37.621094 15.597656 37.316406 15.570312 37.011719 C 15.527344 36.546875 15.484375 36.078125 15.445312 35.613281 C 15.417969 35.316406 15.390625 35.019531 15.363281 34.726562 C 15.351562 34.585938 15.339844 34.445312 15.324219 34.300781 C 15.3125 34.171875 15.300781 34.039062 15.289062 33.90625 C 15.28125 33.792969 15.269531 33.675781 15.261719 33.558594 C 15.242188 33.300781 15.238281 33.039062 15.238281 32.777344 C 15.878906 32.777344 16.523438 32.773438 17.164062 32.773438 C 17.382812 32.773438 17.601562 32.769531 17.820312 32.769531 C 18.132812 32.769531 18.445312 32.769531 18.761719 32.765625 C 18.859375 32.765625 18.957031 32.765625 19.058594 32.765625 C 19.292969 32.765625 19.527344 32.773438 19.761719 32.777344 C 19.984375 33 19.941406 33.367188 19.96875 33.664062 C 19.988281 33.816406 20.003906 33.972656 20.019531 34.132812 C 20.035156 34.296875 20.050781 34.460938 20.066406 34.628906 C 20.082031 34.792969 20.101562 34.957031 20.117188 35.125 C 20.15625 35.53125 20.199219 35.9375 20.238281 36.34375 C 20.863281 36.515625 21.488281 36.6875 22.113281 36.855469 C 22.324219 36.914062 22.535156 36.972656 22.75 37.03125 C 23.054688 37.117188 23.359375 37.199219 23.667969 37.28125 C 23.761719 37.308594 23.855469 37.335938 23.949219 37.363281 C 24.929688 37.621094 25.757812 37.449219 26.726562 37.195312 C 26.808594 37.175781 26.886719 37.15625 26.96875 37.132812 C 27.21875 37.066406 27.46875 37.003906 27.714844 36.9375 C 27.882812 36.890625 28.054688 36.847656 28.222656 36.804688 C 28.53125 36.722656 28.839844 36.640625 29.148438 36.558594 C 29.429688 36.484375 29.714844 36.414062 30 36.34375 C 30.003906 36.203125 30.011719 36.066406 30.015625 35.925781 C 30.089844 34.296875 30.21875 32.679688 30.363281 31.058594 C 30.386719 30.820312 30.40625 30.578125 30.429688 30.335938 C 30.507812 29.457031 30.585938 28.582031 30.664062 27.703125 C 30.835938 25.734375 31.011719 23.761719 31.191406 21.734375 C 25.613281 21.734375 20.035156 21.734375 14.285156 21.734375 C 14.078125 20.175781 13.929688 18.789062 13.929688 17.222656 Z M 13.929688 17.222656 "/>
        <path style=" stroke:none;fill-rule:nonzero;fill:rgb(54.117647%,80.784314%,9.019608%);fill-opacity:1;" d="M 25.117188 12.828125 C 29.871094 12.828125 34.625 12.828125 39.523438 12.828125 C 39.523438 13.625 39.503906 14.382812 39.421875 15.167969 C 39.398438 15.402344 39.378906 15.632812 39.355469 15.867188 C 39.34375 15.992188 39.328125 16.113281 39.316406 16.242188 C 39.042969 18.988281 38.800781 21.738281 38.566406 24.484375 C 38.199219 28.792969 37.808594 33.09375 37.40625 37.398438 C 37.363281 37.882812 37.316406 38.367188 37.273438 38.855469 C 37.242188 39.1875 37.210938 39.519531 37.179688 39.851562 C 37.160156 40.054688 37.140625 40.257812 37.121094 40.464844 C 37.113281 40.558594 37.105469 40.65625 37.09375 40.753906 C 37.03125 41.472656 36.976562 42.195312 36.933594 42.914062 C 36.90625 43.230469 36.90625 43.230469 36.785156 43.585938 C 36.429688 43.730469 36.085938 43.839844 35.714844 43.941406 C 35.640625 43.964844 35.566406 43.984375 35.488281 44.007812 C 34.945312 44.160156 34.402344 44.308594 33.855469 44.457031 C 33.402344 44.582031 32.953125 44.707031 32.5 44.832031 C 31.972656 44.980469 31.445312 45.125 30.917969 45.269531 C 29.75 45.59375 28.582031 45.925781 27.417969 46.269531 C 25.632812 46.792969 25.632812 46.792969 25 46.792969 C 24.960938 45.304688 24.921875 43.816406 24.882812 42.28125 C 25.882812 42.046875 25.882812 42.046875 26.90625 41.804688 C 27.269531 41.691406 27.636719 41.582031 28.003906 41.464844 C 28.605469 41.285156 29.210938 41.128906 29.820312 40.972656 C 30.804688 40.722656 31.773438 40.453125 32.738281 40.140625 C 33.226562 39.988281 33.648438 39.894531 34.167969 39.90625 C 34.171875 39.816406 34.175781 39.726562 34.183594 39.636719 C 34.324219 37.375 34.503906 35.121094 34.710938 32.863281 C 34.742188 32.523438 34.769531 32.1875 34.800781 31.847656 C 35.058594 29.003906 35.324219 26.164062 35.59375 23.324219 C 35.621094 23.027344 35.652344 22.730469 35.679688 22.433594 C 35.691406 22.292969 35.707031 22.152344 35.71875 22.007812 C 35.816406 20.976562 35.90625 19.949219 35.992188 18.917969 C 36 18.816406 36.011719 18.714844 36.019531 18.609375 C 36.027344 18.519531 36.035156 18.433594 36.042969 18.34375 C 36.082031 17.96875 36.136719 17.59375 36.191406 17.222656 C 32.535156 17.222656 28.882812 17.222656 25.117188 17.222656 C 25.117188 15.769531 25.117188 14.320312 25.117188 12.828125 Z M 25.117188 12.828125 "/>
        <path style=" stroke:none;fill-rule:nonzero;fill:rgb(53.72549%,80.784314%,9.019608%);fill-opacity:1;" d="M 25 21.734375 C 27.042969 21.734375 29.085938 21.734375 31.191406 21.734375 C 31.191406 23.070312 31.191406 23.070312 31.152344 23.53125 C 31.140625 23.636719 31.132812 23.742188 31.125 23.851562 C 31.113281 23.960938 31.105469 24.070312 31.09375 24.1875 C 31.078125 24.367188 31.078125 24.367188 31.0625 24.550781 C 31.027344 24.945312 30.996094 25.339844 30.960938 25.730469 C 30.9375 26.007812 30.914062 26.285156 30.890625 26.558594 C 30.839844 27.136719 30.789062 27.710938 30.738281 28.285156 C 30.675781 29.023438 30.613281 29.761719 30.546875 30.496094 C 30.5 31.066406 30.449219 31.632812 30.402344 32.203125 C 30.378906 32.476562 30.351562 32.746094 30.328125 33.019531 C 30.296875 33.398438 30.265625 33.777344 30.230469 34.15625 C 30.222656 34.269531 30.210938 34.378906 30.203125 34.496094 C 30.148438 35.113281 30.082031 35.726562 30 36.34375 C 29.132812 36.640625 28.253906 36.890625 27.367188 37.128906 C 27.230469 37.164062 27.09375 37.203125 26.953125 37.242188 C 26.824219 37.277344 26.691406 37.3125 26.554688 37.347656 C 26.4375 37.378906 26.316406 37.414062 26.195312 37.445312 C 25.800781 37.535156 25.398438 37.589844 25 37.648438 C 25 32.398438 25 27.144531 25 21.734375 Z M 25 21.734375 "/>
        <path style=" stroke:none;fill-rule:nonzero;fill:rgb(91.372549%,91.764706%,91.372549%);fill-opacity:1;" d="M 15.238281 32.777344 C 15.878906 32.777344 16.523438 32.773438 17.164062 32.773438 C 17.382812 32.773438 17.601562 32.769531 17.820312 32.769531 C 18.132812 32.769531 18.445312 32.769531 18.761719 32.765625 C 18.859375 32.765625 18.957031 32.765625 19.058594 32.765625 C 19.292969 32.765625 19.527344 32.773438 19.761719 32.777344 C 19.984375 33 19.941406 33.367188 19.96875 33.664062 C 19.984375 33.800781 20 33.941406 20.015625 34.085938 C 20.03125 34.265625 20.050781 34.441406 20.066406 34.628906 C 20.125 35.191406 20.179688 35.757812 20.238281 36.34375 C 21.886719 36.773438 23.539062 37.203125 25.238281 37.648438 C 25.121094 37.707031 25.121094 37.707031 25 37.765625 C 25 39.257812 25 40.746094 25 42.28125 C 24.351562 42.199219 23.816406 42.113281 23.199219 41.941406 C 23.121094 41.921875 23.039062 41.898438 22.960938 41.875 C 22.703125 41.804688 22.445312 41.734375 22.1875 41.660156 C 22.007812 41.609375 21.828125 41.558594 21.648438 41.511719 C 21.273438 41.40625 20.898438 41.300781 20.523438 41.195312 C 20.042969 41.058594 19.5625 40.925781 19.078125 40.792969 C 18.707031 40.6875 18.339844 40.585938 17.96875 40.480469 C 17.789062 40.429688 17.613281 40.382812 17.433594 40.332031 C 17.1875 40.261719 16.941406 40.195312 16.695312 40.125 C 16.554688 40.085938 16.414062 40.042969 16.269531 40.003906 C 15.953125 39.90625 15.953125 39.90625 15.832031 39.785156 C 15.804688 39.585938 15.785156 39.382812 15.765625 39.179688 C 15.753906 39.050781 15.742188 38.921875 15.730469 38.789062 C 15.710938 38.578125 15.710938 38.578125 15.691406 38.363281 C 15.679688 38.21875 15.664062 38.074219 15.652344 37.925781 C 15.625 37.621094 15.597656 37.316406 15.570312 37.011719 C 15.527344 36.546875 15.484375 36.078125 15.445312 35.613281 C 15.417969 35.316406 15.390625 35.019531 15.363281 34.726562 C 15.351562 34.585938 15.339844 34.445312 15.324219 34.300781 C 15.3125 34.171875 15.300781 34.039062 15.289062 33.90625 C 15.28125 33.792969 15.269531 33.675781 15.261719 33.558594 C 15.242188 33.300781 15.238281 33.039062 15.238281 32.777344 Z M 15.238281 32.777344 "/>
        <path style=" stroke:none;fill-rule:nonzero;fill:rgb(90.588235%,91.764706%,89.411765%);fill-opacity:1;" d="M 13.929688 17.222656 C 21.273438 17.222656 28.621094 17.222656 36.191406 17.222656 C 36.191406 17.261719 36.191406 17.300781 36.191406 17.339844 C 32.496094 17.339844 28.804688 17.339844 25 17.339844 C 25 18.75 25 20.160156 25 21.613281 C 27.042969 21.613281 29.085938 21.613281 31.191406 21.613281 C 31.191406 21.65625 31.191406 21.695312 31.191406 21.734375 C 25.613281 21.734375 20.035156 21.734375 14.285156 21.734375 C 14.078125 20.175781 13.929688 18.789062 13.929688 17.222656 Z M 13.929688 17.222656 "/>
        <path style=" stroke:none;fill-rule:nonzero;fill:rgb(0%,0%,0%);fill-opacity:1;" d="M 25.476562 0 C 27.597656 0 29.71875 0 31.90625 0 C 31.90625 0.746094 31.90625 1.488281 31.90625 2.257812 C 31.039062 2.296875 30.175781 2.335938 29.285156 2.375 C 29.734375 2.742188 29.734375 2.742188 30.195312 3.117188 C 30.285156 3.195312 30.378906 3.269531 30.476562 3.347656 C 30.550781 3.410156 30.625 3.472656 30.703125 3.535156 C 30.816406 3.628906 30.816406 3.628906 30.933594 3.722656 C 31.246094 3.960938 31.578125 4.175781 31.90625 4.394531 C 31.90625 5.179688 31.90625 5.960938 31.90625 6.769531 C 29.785156 6.769531 27.660156 6.769531 25.476562 6.769531 C 25.476562 6.023438 25.476562 5.28125 25.476562 4.511719 C 26.65625 4.453125 26.65625 4.453125 27.855469 4.394531 C 27.613281 4.214844 27.613281 4.214844 27.367188 4.035156 C 27.15625 3.878906 26.945312 3.726562 26.734375 3.570312 C 26.574219 3.453125 26.574219 3.453125 26.410156 3.332031 C 26.308594 3.257812 26.207031 3.183594 26.101562 3.105469 C 26.007812 3.039062 25.914062 2.96875 25.816406 2.898438 C 25.59375 2.730469 25.59375 2.730469 25.476562 2.613281 C 25.476562 1.75 25.476562 0.886719 25.476562 0 Z M 25.476562 0 "/>
        <path style=" stroke:none;fill-rule:nonzero;fill:rgb(0%,0%,0%);fill-opacity:1;" d="M 21.785156 0 C 22.648438 0 23.515625 0 24.40625 0 C 24.40625 2.234375 24.40625 4.46875 24.40625 6.769531 C 22.324219 6.769531 20.242188 6.769531 18.09375 6.769531 C 18.09375 5.945312 18.09375 5.125 18.09375 4.277344 C 19.3125 4.277344 20.53125 4.277344 21.785156 4.277344 C 21.785156 2.863281 21.785156 1.453125 21.785156 0 Z M 21.785156 0 "/>
    </g>
    <g id="bootstrap">
        <path style=" stroke:none;fill-rule:nonzero;fill:rgb(33.72549%,23.921569%,48.627451%);fill-opacity:1;" d="M 11.515625 3.226562 C 11.828125 3.222656 12.144531 3.222656 12.46875 3.21875 C 13.332031 3.214844 14.195312 3.214844 15.058594 3.214844 C 15.597656 3.214844 16.136719 3.214844 16.679688 3.210938 C 18.566406 3.207031 20.453125 3.203125 22.339844 3.207031 C 24.09375 3.207031 25.847656 3.199219 27.601562 3.191406 C 29.113281 3.1875 30.621094 3.183594 32.132812 3.183594 C 33.03125 3.183594 33.929688 3.183594 34.832031 3.175781 C 35.835938 3.171875 36.84375 3.171875 37.847656 3.175781 C 38.140625 3.171875 38.4375 3.171875 38.738281 3.167969 C 40.703125 3.183594 42.625 3.402344 44.148438 4.75 C 45.816406 6.523438 45.761719 8.484375 45.761719 10.800781 C 45.765625 11.121094 45.765625 11.441406 45.769531 11.769531 C 45.773438 12.644531 45.777344 13.523438 45.777344 14.398438 C 45.78125 14.949219 45.78125 15.496094 45.78125 16.042969 C 45.789062 17.960938 45.792969 19.878906 45.792969 21.796875 C 45.792969 23.578125 45.800781 25.359375 45.8125 27.140625 C 45.820312 28.671875 45.824219 30.207031 45.824219 31.742188 C 45.824219 32.65625 45.828125 33.570312 45.835938 34.484375 C 45.84375 35.503906 45.839844 36.527344 45.835938 37.546875 C 45.84375 37.996094 45.84375 37.996094 45.847656 38.453125 C 45.828125 40.601562 45.40625 42.421875 43.835938 43.972656 C 43.652344 44.082031 43.464844 44.191406 43.273438 44.304688 C 43.089844 44.421875 42.902344 44.535156 42.710938 44.65625 C 41.664062 45.140625 40.640625 45.210938 39.5 45.214844 C 39.09375 45.214844 39.09375 45.214844 38.683594 45.21875 C 38.242188 45.21875 38.242188 45.21875 37.792969 45.21875 C 37.480469 45.21875 37.167969 45.222656 36.847656 45.222656 C 35.996094 45.226562 35.144531 45.226562 34.292969 45.226562 C 33.757812 45.230469 33.226562 45.230469 32.691406 45.230469 C 31.023438 45.234375 29.351562 45.238281 27.683594 45.238281 C 25.757812 45.238281 23.835938 45.242188 21.910156 45.25 C 20.421875 45.257812 18.929688 45.257812 17.441406 45.257812 C 16.550781 45.261719 15.664062 45.261719 14.773438 45.265625 C 13.78125 45.269531 12.789062 45.269531 11.796875 45.269531 C 11.507812 45.269531 11.214844 45.273438 10.914062 45.273438 C 8.9375 45.265625 7.175781 45.066406 5.632812 43.703125 C 5.492188 43.585938 5.355469 43.46875 5.214844 43.347656 C 3.835938 41.746094 3.949219 40.097656 3.953125 38.085938 C 3.953125 37.753906 3.949219 37.421875 3.949219 37.082031 C 3.941406 36.175781 3.941406 35.269531 3.941406 34.363281 C 3.941406 33.605469 3.941406 32.847656 3.9375 32.089844 C 3.933594 30.304688 3.933594 28.515625 3.933594 26.726562 C 3.933594 24.886719 3.929688 23.046875 3.921875 21.203125 C 3.914062 19.621094 3.910156 18.039062 3.910156 16.453125 C 3.910156 15.507812 3.910156 14.566406 3.902344 13.621094 C 3.898438 12.566406 3.898438 11.511719 3.90625 10.457031 C 3.902344 10.148438 3.898438 9.835938 3.894531 9.515625 C 3.914062 7.464844 4.273438 6.183594 5.695312 4.691406 C 7.421875 3.121094 9.3125 3.222656 11.515625 3.226562 Z M 11.515625 3.226562 "/>
        <path style=" stroke:none;fill-rule:nonzero;fill:rgb(99.607843%,99.607843%,99.607843%);fill-opacity:1;" d="M 15.734375 11.675781 C 18.070312 11.660156 20.40625 11.644531 22.8125 11.628906 C 23.542969 11.621094 24.273438 11.613281 25.03125 11.605469 C 25.617188 11.605469 26.203125 11.601562 26.789062 11.601562 C 27.089844 11.597656 27.390625 11.59375 27.699219 11.589844 C 29.875 11.589844 32.195312 11.714844 33.867188 13.277344 C 34.101562 13.488281 34.101562 13.488281 34.34375 13.703125 C 35.636719 15.246094 35.664062 16.675781 35.621094 18.617188 C 35.464844 20.246094 34.9375 21.257812 33.726562 22.335938 C 32.996094 22.84375 32.996094 22.84375 32.488281 22.84375 C 32.488281 23.011719 32.488281 23.175781 32.488281 23.351562 C 32.675781 23.375 32.863281 23.402344 33.058594 23.429688 C 34.40625 23.765625 35.351562 24.769531 36.144531 25.882812 C 37.101562 27.707031 37.160156 29.945312 36.609375 31.910156 C 35.890625 33.613281 34.988281 34.769531 33.296875 35.582031 C 32.917969 35.765625 32.917969 35.765625 32.53125 35.957031 C 30.523438 36.800781 28.835938 36.871094 26.667969 36.851562 C 26.390625 36.851562 26.113281 36.851562 25.824219 36.851562 C 24.792969 36.847656 23.761719 36.839844 22.730469 36.832031 C 20.421875 36.824219 18.113281 36.8125 15.734375 36.800781 C 15.734375 28.511719 15.734375 20.21875 15.734375 11.675781 Z M 15.734375 11.675781 "/>
        <path style=" stroke:none;fill-rule:nonzero;fill:rgb(34.509804%,24.705882%,49.019608%);fill-opacity:1;" d="M 21.320312 25.632812 C 22.46875 25.613281 23.613281 25.597656 24.761719 25.585938 C 25.25 25.578125 25.25 25.578125 25.742188 25.566406 C 27.78125 25.550781 29.207031 25.578125 30.820312 26.902344 C 31.429688 28.074219 31.4375 29.167969 31.21875 30.457031 C 30.804688 31.316406 30.238281 31.832031 29.378906 32.269531 C 28.535156 32.53125 27.828125 32.542969 26.945312 32.535156 C 26.617188 32.535156 26.289062 32.535156 25.953125 32.53125 C 25.609375 32.527344 25.265625 32.523438 24.921875 32.519531 C 24.570312 32.515625 24.222656 32.515625 23.875 32.511719 C 23.023438 32.507812 22.171875 32.496094 21.320312 32.488281 C 21.320312 30.226562 21.320312 27.964844 21.320312 25.632812 Z M 21.320312 25.632812 "/>
        <path style=" stroke:none;fill-rule:nonzero;fill:rgb(34.117647%,24.313725%,48.627451%);fill-opacity:1;" d="M 21.320312 15.988281 C 22.339844 15.96875 23.359375 15.953125 24.382812 15.941406 C 24.8125 15.933594 24.8125 15.933594 25.253906 15.921875 C 27.078125 15.90625 28.484375 15.949219 29.933594 17.164062 C 30.359375 18.117188 30.367188 19.023438 30.203125 20.050781 C 29.601562 21.097656 29.046875 21.464844 27.917969 21.828125 C 27.167969 21.886719 27.167969 21.886719 26.351562 21.878906 C 26.058594 21.875 25.765625 21.875 25.460938 21.871094 C 25.003906 21.867188 25.003906 21.867188 24.539062 21.859375 C 24.230469 21.855469 23.921875 21.855469 23.605469 21.851562 C 22.84375 21.847656 22.082031 21.835938 21.320312 21.828125 C 21.320312 19.902344 21.320312 17.976562 21.320312 15.988281 Z M 21.320312 15.988281 "/>
    </g>
</svg>
