<svg width="16" height="9" viewBox="0 0 16 9" fill="none" xmlns="http://www.w3.org/2000/svg">
    <g id="arrow">
        <path d="M0.5 4.36682C0.5 4.53258 0.565848 4.69155 0.683058 4.80876C0.800269 4.92597 0.95924 4.99182 1.125 4.99182H13.3663L10.6838 7.67432C10.5699 7.7922 10.5069 7.95007 10.5083 8.11395C10.5098 8.27782 10.5755 8.43458 10.6914 8.55046C10.8072 8.66634 10.964 8.73207 11.1279 8.73349C11.2917 8.73491 11.4496 8.67192 11.5675 8.55807L15.3175 4.80807C15.3753 4.75057 15.4212 4.68221 15.4525 4.60691C15.4839 4.53161 15.5 4.45087 15.5 4.36932V4.36682C15.5 4.28557 15.4838 4.20432 15.4513 4.12807C15.4201 4.0523 15.3742 3.98346 15.3162 3.92557L11.5663 0.175567C11.4484 0.0617181 11.2905 -0.00127832 11.1266 0.000145697C10.9628 0.00156971 10.806 0.0673002 10.6901 0.18318C10.5742 0.29906 10.5085 0.455818 10.5071 0.619691C10.5057 0.783564 10.5687 0.941441 10.6825 1.05932L13.3663 3.74182H1.125C0.95924 3.74182 0.800269 3.80767 0.683058 3.92488C0.565848 4.04209 0.5 4.20106 0.5 4.36682Z" fill="white"/>
    </g>

</svg>
